<svg xmlns="http://www.w3.org/2000/svg" fill="none" viewBox="0 0 24 24" width="24" height="24">
  <defs/>
  <path fill="#22A45D" fill-rule="evenodd" d="M2.5 8.7c0-1.12 0-1.68.218-2.108a2 2 0 01.874-.874C4.02 5.5 4.58 5.5 5.7 5.5h12.6c1.12 0 1.68 0 2.108.218a2 2 0 01.874.874c.218.428.218.988.218 2.108v6.6c0 1.12 0 1.68-.218 2.108a2 2 0 01-.874.874c-.428.218-.988.218-2.108.218H5.7c-1.12 0-1.68 0-2.108-.218a2 2 0 01-.874-.874C2.5 16.98 2.5 16.42 2.5 15.3V8.7zm13 7.8a4 4 0 100-8 4 4 0 000 8zM7.5 9a1.5 1.5 0 11-3 0 1.5 1.5 0 013 0z" clip-rule="evenodd"/>
</svg>