<svg xmlns="http://www.w3.org/2000/svg" fill="none" viewBox="0 0 24 24">
  <path fill="#22A45D" fill-rule="evenodd" d="M11.296 24c6.239 0 9.414-10.2 3.766-14.4C9.413 5.4 18.79 0 12.552 0 6.311 0 0 7.235 0 13.2 0 19.165 5.057 24 11.296 24z" clip-rule="evenodd" opacity=".2"/>
  <path fill="#22A45D" fill-rule="evenodd" d="M22.333 14a8.333 8.333 0 11-16.666 0 8.333 8.333 0 0116.666 0zm-8.282-6.25a.676.676 0 00-.675.676v.896c-.051.011-.102.023-.152.036a3.52 3.52 0 00-1.13.493 2.634 2.634 0 00-.809.863c-.205.35-.308.77-.308 1.262 0 .4.066.74.2 1.02.132.278.307.516.525.712.219.195.467.356.745.48.278.126.563.234.854.326.299.091.566.177.802.256.235.08.432.167.59.263.159.095.28.202.366.318a.699.699 0 01.128.425.925.925 0 01-.102.45.822.822 0 01-.276.3c-.116.075-.25.13-.405.163a2.24 2.24 0 01-.474.05c-.36 0-.721-.09-1.085-.269a2.647 2.647 0 01-.88-.669l-1.437 1.425c.402.409.907.723 1.514.944.434.158.878.259 1.334.304v1.1a.676.676 0 001.35 0v-1.137c.17-.028.335-.065.5-.11.42-.117.791-.297 1.117-.538.325-.242.584-.548.776-.919.193-.37.29-.81.29-1.319 0-.441-.09-.81-.27-1.106a2.548 2.548 0 00-.68-.744 3.63 3.63 0 00-.912-.48c-.334-.122-.655-.232-.963-.332a12.862 12.862 0 01-.577-.194 2.545 2.545 0 01-.443-.206.846.846 0 01-.283-.263.681.681 0 01-.096-.375c0-.175.04-.318.122-.43a.99.99 0 01.302-.276c.12-.07.254-.119.404-.144a2.129 2.129 0 011.322.169c.304.138.55.323.738.556l1.4-1.437a4.072 4.072 0 00-1.406-.813 4.935 4.935 0 00-1.34-.268v-.782a.676.676 0 00-.676-.676z" clip-rule="evenodd"/>
</svg>