<svg width="24" height="24" viewBox="0 0 24 24" fill="none" xmlns="http://www.w3.org/2000/svg">
<path fill-rule="evenodd" clip-rule="evenodd" d="M21 12C21 16.9706 16.9706 21 12 21C7.02944 21 3 16.9706 3 12C3 7.02944 7.02944 3 12 3C16.9706 3 21 7.02944 21 12ZM12.0571 5C11.6392 5 11.3005 5.33877 11.3005 5.75667V6.76078C11.2436 6.77316 11.1869 6.78639 11.1302 6.80047C10.6606 6.91714 10.2388 7.10147 9.86504 7.35347C9.49125 7.60547 9.18934 7.92747 8.95931 8.31947C8.72929 8.71147 8.61427 9.1828 8.61427 9.73347C8.61427 10.1815 8.68855 10.5618 8.83711 10.8745C8.98567 11.1871 9.18215 11.4531 9.42656 11.6725C9.67096 11.8918 9.94891 12.0715 10.2604 12.2115C10.5719 12.3515 10.8906 12.4728 11.2165 12.5755C11.5519 12.6781 11.8514 12.7738 12.115 12.8625C12.3786 12.9511 12.599 13.0491 12.7763 13.1565C12.9536 13.2638 13.0902 13.3828 13.1861 13.5135C13.2819 13.6441 13.3298 13.8028 13.3298 13.9895C13.3298 14.1855 13.2915 14.3535 13.2148 14.4935C13.1381 14.6335 13.0351 14.7455 12.9057 14.8295C12.7763 14.9135 12.6254 14.9741 12.4528 15.0115C12.2803 15.0488 12.103 15.0675 11.9209 15.0675C11.5184 15.0675 11.1134 14.9671 10.7061 14.7665C10.2987 14.5658 9.97047 14.3161 9.72128 14.0175L8.11109 15.6135C8.56156 16.0708 9.12704 16.4231 9.80754 16.6705C10.293 16.8469 10.7906 16.9604 11.3005 17.011V18.2433C11.3005 18.6612 11.6392 19 12.0571 19C12.475 19 12.8138 18.6612 12.8138 18.2433V16.9691C13.0024 16.9379 13.1888 16.8967 13.373 16.8455C13.8426 16.7148 14.2595 16.5141 14.6237 16.2435C14.9879 15.9728 15.2779 15.6298 15.4935 15.2145C15.7092 14.7991 15.817 14.3068 15.817 13.7375C15.817 13.2428 15.7163 12.8298 15.5151 12.4985C15.3138 12.1671 15.0598 11.8895 14.7531 11.6655C14.4464 11.4415 14.1062 11.2618 13.7324 11.1265C13.3586 10.9911 12.9992 10.8675 12.6541 10.7555C12.4145 10.6808 12.1989 10.6085 12.0072 10.5385C11.8155 10.4685 11.6501 10.3915 11.5112 10.3075C11.3722 10.2235 11.2668 10.1255 11.1949 10.0135C11.123 9.90147 11.0871 9.76147 11.0871 9.59347C11.0871 9.39747 11.1326 9.23647 11.2236 9.11047C11.3147 8.98447 11.4273 8.88181 11.5615 8.80247C11.6957 8.72314 11.8466 8.66947 12.0144 8.64147C12.1821 8.61347 12.3474 8.59947 12.5104 8.59947C12.8266 8.59947 13.1549 8.67647 13.4952 8.83047C13.8354 8.98447 14.111 9.19214 14.3218 9.45347L15.8889 7.84347C15.4384 7.44214 14.9137 7.13881 14.3146 6.93347C13.8057 6.75902 13.3054 6.65868 12.8138 6.63244V5.75667C12.8138 5.33877 12.475 5 12.0571 5Z" fill="#010F07"/>
</svg>
