<svg xmlns="http://www.w3.org/2000/svg" fill="#010F07" viewBox="0 0 24 24">
  <path  fillRule="evenodd" d="M22 12c0 5.523-4.477 10-10 10S2 17.523 2 12 6.477 2 12 2s10 4.477 10 10zm-9.958-7.5a.792.792 0 00-.791.792v1.095l-.183.042a4.224 4.224 0 00-1.355.593c-.4.27-.724.615-.97 1.035-.247.42-.37.925-.37 1.515 0 .48.079.887.238 1.222.16.335.37.62.632.855s.56.428.893.578c.334.15.675.28 1.025.39.359.11.68.212.962.307.283.095.519.2.709.315.19.115.336.243.439.383.102.14.154.31.154.51 0 .21-.041.39-.123.54a.986.986 0 01-.332.36c-.138.09-.3.155-.485.195-.185.04-.375.06-.57.06-.431 0-.865-.108-1.301-.323a3.176 3.176 0 01-1.055-.802l-1.726 1.71c.483.49 1.089.867 1.818 1.132.52.19 1.053.31 1.6.365v1.34c0 .437.354.791.791.791h.038a.792.792 0 00.792-.792v-1.384a5.7 5.7 0 00.599-.132c.503-.14.95-.355 1.34-.645.39-.29.701-.658.932-1.103.231-.445.347-.972.347-1.582 0-.53-.108-.973-.324-1.328a3.06 3.06 0 00-.816-.892 4.358 4.358 0 00-1.094-.578c-.4-.145-.785-.277-1.155-.397-.257-.08-.488-.158-.693-.233a3.055 3.055 0 01-.532-.247 1.017 1.017 0 01-.339-.315.818.818 0 01-.115-.45c0-.21.049-.383.146-.518.098-.135.218-.245.362-.33.144-.085.306-.142.485-.172a2.554 2.554 0 011.587.203c.364.164.66.387.886.667l1.679-1.725a4.888 4.888 0 00-1.687-.975 5.923 5.923 0 00-1.608-.323v-.957a.792.792 0 00-.792-.792h-.038z" clipRule="evenodd"/>
</svg>