<svg xmlns="http://www.w3.org/2000/svg" fill="#010F07" viewBox="0 0 24 24">
  <path fill-rule="evenodd" d="M7.375 8.252L7 4.5h-.833v3.75a2.917 2.917 0 105.833 0V4.5h-.833l-.376 3.752a.46.46 0 01-.916 0L9.5 4.5h-.833L8.29 8.252a.46.46 0 01-.916 0zm2.588 5.413a.881.881 0 00-1.76 0l-.3 5.42a1.182 1.182 0 102.361 0l-.301-5.42zm6.62.835c.47 0 .86.363.893.831l.268 3.756a1.164 1.164 0 11-2.322 0l.269-3.756a.895.895 0 01.892-.831zm1.25-1.667V4.5A3.333 3.333 0 0014.5 7.833v5h3.333z" clip-rule="evenodd"/>
</svg>