<svg xmlns="http://www.w3.org/2000/svg" fill="none" viewBox="0 0 24 24">
  <defs/>
  <!-- <rect width="24" height="24" fill="#fff" rx="4"/> -->
  <path fill="#EA4335" d="M12.067 8.346c1.139 0 1.907.492 2.345.903l1.713-1.672C15.073 6.6 13.705 6 12.067 6a6.062 6.062 0 00-5.42 3.343l1.962 1.524c.492-1.463 1.854-2.521 3.458-2.521z"/>
  <path fill="#4285F4" d="M17.89 12.201c0-.498-.04-.862-.127-1.24h-5.696v2.252h3.343c-.067.56-.431 1.402-1.24 1.968l1.914 1.483c1.146-1.059 1.807-2.616 1.807-4.463z"/>
  <path fill="#FBBC05" d="M8.615 13.267a3.733 3.733 0 01-.202-1.2c0-.418.074-.823.196-1.2L6.647 9.343A6.073 6.073 0 006 12.067c0 .977.236 1.9.647 2.723l1.968-1.523z"/>
  <path fill="#34A853" d="M12.067 18.133c1.638 0 3.013-.539 4.017-1.47l-1.914-1.482c-.513.357-1.2.607-2.103.607-1.605 0-2.966-1.059-3.452-2.521L6.654 14.79a6.052 6.052 0 005.413 3.343z"/>
</svg>