<svg xmlns="http://www.w3.org/2000/svg" fill="none" viewBox="0 0 34 34">
  <defs/>
  <path fill="#fff" fill-rule="evenodd" d="M9 9.6c0-.56 0-.84.109-1.054a1 1 0 01.437-.437C9.76 8 10.04 8 10.6 8h12.8c.56 0 .84 0 1.054.109a1 1 0 01.437.437C25 8.76 25 9.04 25 9.6v14.8c0 .56 0 .84-.109 1.054a.997.997 0 01-.184.253L23 24l-1.5 1.5L20 24l-1.5 1.5L17 24l-1.5 1.5L14 24l-1.5 1.5L11 24l-1.707 1.707a.999.999 0 01-.184-.253C9 25.24 9 24.96 9 24.4V9.6zm2.055.673C11 10.38 11 10.52 11 10.8v.4c0 .28 0 .42.055.527a.5.5 0 00.218.218c.107.055.247.055.527.055h10.4c.28 0 .42 0 .527-.055a.5.5 0 00.218-.218C23 11.62 23 11.48 23 11.2v-.4c0-.28 0-.42-.055-.527a.5.5 0 00-.218-.218C22.62 10 22.48 10 22.2 10H11.8c-.28 0-.42 0-.527.055a.5.5 0 00-.218.218z" clip-rule="evenodd"/>
</svg>