<svg xmlns="http://www.w3.org/2000/svg" fill="none" viewBox="0 0 24 24">
  <rect width="8.571" height="16.615" x="7.714" y="3.692" fill="#22A45D" opacity=".3" rx="1.523"/>
  <path fill="#22A45D" fill-rule="evenodd" d="M7 6.323c0-1.163 0-1.745.226-2.189.2-.39.517-.709.908-.908C8.578 3 9.16 3 10.324 3h3.353c1.163 0 1.745 0 2.189.226.39.2.709.517.908.908C17 4.578 17 5.16 17 6.324v11.353c0 1.163 0 1.745-.226 2.189-.2.39-.517.709-.908.908-.444.226-1.026.226-2.19.226h-3.353c-1.163 0-1.745 0-2.189-.226-.39-.2-.709-.517-.908-.908C7 19.422 7 18.84 7 17.676V6.324zm.714-.194c0-.853 0-1.28.166-1.605.146-.287.38-.52.666-.666.326-.166.752-.166 1.605-.166h.42v.139c0 .306.248.554.554.554h1.75a.554.554 0 00.554-.554v-.139h.42c.853 0 1.28 0 1.605.166.287.146.52.38.666.666.166.326.166.752.166 1.605v11.742c0 .853 0 1.28-.166 1.605-.146.287-.38.52-.666.666-.326.166-.752.166-1.605.166H10.15c-.853 0-1.28 0-1.605-.166a1.523 1.523 0 01-.666-.666c-.166-.326-.166-.752-.166-1.605V6.129z" clip-rule="evenodd"/>
</svg>