<svg width="24" height="24" viewBox="0 0 24 24" fill="none" xmlns="http://www.w3.org/2000/svg">
<path d="M22 20.69H2V21.99H22V20.69Z" fill="black"/>
<path d="M3.14003 19.89H3.29003L8.00003 18.79C8.11487 18.7575 8.22086 18.6994 8.31003 18.62L20.15 6.78C20.2698 6.65681 20.3367 6.49179 20.3367 6.32C20.3367 6.14821 20.2698 5.98319 20.15 5.86L16.53 2.24C16.4068 2.12027 16.2418 2.05328 16.07 2.05328C15.8982 2.05328 15.7332 2.12027 15.61 2.24L3.77003 14.08C3.68033 14.163 3.61762 14.271 3.59003 14.39L2.51003 19.1C2.48717 19.1948 2.48627 19.2935 2.50737 19.3886C2.52848 19.4838 2.57104 19.5729 2.63181 19.6491C2.69259 19.7253 2.76996 19.7866 2.85804 19.8284C2.94611 19.8701 3.04256 19.8912 3.14003 19.89ZM5.51003 14.17L13.51 6.17L16.21 8.87L8.21003 16.87L5.51003 14.17ZM16.07 3.62L18.77 6.32L17.11 8L14.41 5.3L16.07 3.62ZM4.73003 15.24L7.15003 17.65L4.00003 18.38L4.73003 15.24Z" fill="black"/>
</svg>
