<svg xmlns="http://www.w3.org/2000/svg" fill="#010F07" viewBox="0 0 24 24">
  <path fill-rule="evenodd" d="M7.627 13.694v.107l-.001.57-.002.645h.12c.228 0 .431-.15.51-.375.67-1.91 1.614-3.07 2.835-3.48.852-.286 1.79-.375 3.106-.413v2.955c0 .144.052.284.145.39a.524.524 0 00.768.03l4.718-4.61a.596.596 0 00-.004-.846l-4.718-4.518A.528.528 0 0014.74 4c-.3 0-.544.257-.544.574v2.973c-2.073.097-3.806.31-4.965 1.54-1.63 1.73-1.61 3.888-1.603 4.607zm3.549-8.231c0-.423-.325-.765-.725-.765H6.9C5.3 4.698 4 6.068 4 7.758v9.182C4 18.63 5.298 20 6.9 20h8.698c1.6 0 2.899-1.37 2.899-3.06v-1.53c0-.423-.325-.766-.725-.766-.4 0-.725.343-.725.765v1.53c0 .846-.649 1.53-1.45 1.53H6.9c-.8 0-1.45-.684-1.45-1.53V7.76c0-.846.65-1.53 1.45-1.53h3.552c.4 0 .725-.343.725-.766z" clip-rule="evenodd"/>
</svg>