<svg xmlns="http://www.w3.org/2000/svg" fill="none" viewBox="0 0 24 24">
  <path fill="#22A45D" fill-rule="evenodd" d="M8.022 13.076v.09l-.001.475-.002.537h.1c.19 0 .36-.125.425-.312.558-1.592 1.345-2.559 2.362-2.9.71-.239 1.491-.312 2.588-.344v2.462c0 .12.043.236.12.325.17.193.457.205.64.025l3.93-3.842a.497.497 0 00-.003-.705l-3.93-3.763A.44.44 0 0013.947 5a.466.466 0 00-.453.478v2.477c-1.727.08-3.172.259-4.137 1.283C8 10.68 8.016 12.478 8.022 13.076zm2.957-6.857c0-.352-.27-.638-.604-.638h-2.96C6.082 5.581 5 6.723 5 8.131v7.65c0 1.407 1.081 2.549 2.416 2.549h7.246c1.334 0 2.416-1.142 2.416-2.55v-1.275c0-.352-.27-.637-.604-.637-.334 0-.604.285-.604.637v1.275c0 .704-.54 1.275-1.208 1.275H7.416c-.667 0-1.208-.57-1.208-1.275V8.131c0-.704.54-1.275 1.208-1.275h2.959c.333 0 .604-.285.604-.637z" clip-rule="evenodd"/>
</svg>