<svg width="24" height="24" viewBox="0 0 24 24" fill="none" xmlns="http://www.w3.org/2000/svg">
<path d="M21 20L15.43 14.43C16.579 13.0443 17.1501 11.2692 17.0246 9.47346C16.899 7.6777 16.0865 5.99934 14.7558 4.78703C13.425 3.57473 11.6784 2.92169 9.87877 2.96357C8.07912 3.00545 6.36477 3.73903 5.09188 5.01192C3.81899 6.28482 3.0854 7.99916 3.04352 9.79882C3.00164 11.5985 3.65469 13.3451 4.86699 14.6758C6.07929 16.0065 7.75766 16.8191 9.55342 16.9446C11.3492 17.0702 13.1243 16.4991 14.51 15.35L20 21C20.061 21.0734 20.1374 21.1325 20.2238 21.1731C20.3102 21.2136 20.4045 21.2347 20.5 21.2347C20.5954 21.2347 20.6897 21.2136 20.7761 21.1731C20.8625 21.1325 20.939 21.0734 21 21C21.0719 20.938 21.1296 20.8613 21.1691 20.775C21.2087 20.6887 21.2291 20.5949 21.2291 20.5C21.2291 20.4051 21.2087 20.3113 21.1691 20.225C21.1296 20.1387 21.0719 20.062 21 20V20ZM4.29995 10C4.29995 8.87264 4.63425 7.77061 5.26058 6.83325C5.8869 5.89589 6.77712 5.1653 7.81866 4.73388C8.8602 4.30247 10.0063 4.18959 11.112 4.40952C12.2177 4.62946 13.2333 5.17233 14.0305 5.96949C14.8276 6.76665 15.3705 7.78229 15.5904 8.88798C15.8104 9.99367 15.6975 11.1398 15.2661 12.1813C14.8346 13.2228 14.1041 14.1131 13.1667 14.7394C12.2293 15.3657 11.1273 15.7 9.99995 15.7C8.48903 15.6974 7.04075 15.096 5.97237 14.0276C4.90398 12.9592 4.3026 11.5109 4.29995 10V10Z" fill="black"/>
<rect width="10" height="10" transform="translate(11)"/>
<path d="M12.25 2.35417H19.75C19.7855 2.35417 19.8207 2.34716 19.8536 2.33355C19.8865 2.31994 19.9163 2.29999 19.9415 2.27484C19.9666 2.24969 19.9866 2.21984 20.0002 2.18698C20.0138 2.15412 20.0208 2.1189 20.0208 2.08333C20.0208 2.04777 20.0138 2.01255 20.0002 1.97969C19.9866 1.94683 19.9666 1.91697 19.9415 1.89183C19.9163 1.86668 19.8865 1.84673 19.8536 1.83312C19.8207 1.81951 19.7855 1.8125 19.75 1.8125H12.25C12.1781 1.8125 12.1092 1.84103 12.0585 1.89183C12.0077 1.94262 11.9791 2.0115 11.9791 2.08333C11.9791 2.15516 12.0077 2.22405 12.0585 2.27484C12.1092 2.32563 12.1781 2.35417 12.25 2.35417V2.35417Z" fill="black"/>
<path d="M19.75 7.64587H12.25C12.1781 7.64587 12.1092 7.67441 12.0585 7.7252C12.0077 7.77599 11.9791 7.84488 11.9791 7.91671C11.9791 7.98854 12.0077 8.05742 12.0585 8.10821C12.1092 8.15901 12.1781 8.18754 12.25 8.18754H19.75C19.8218 8.18754 19.8907 8.15901 19.9415 8.10821C19.9923 8.05742 20.0208 7.98854 20.0208 7.91671C20.0208 7.84488 19.9923 7.77599 19.9415 7.7252C19.8907 7.67441 19.8218 7.64587 19.75 7.64587V7.64587Z" fill="black"/>
<path d="M19.75 4.72913H12.25C12.1781 4.72913 12.1092 4.75766 12.0585 4.80845C12.0077 4.85924 11.9791 4.92813 11.9791 4.99996C11.9791 5.07179 12.0077 5.14068 12.0585 5.19147C12.1092 5.24226 12.1781 5.27079 12.25 5.27079H19.75C19.8218 5.27079 19.8907 5.24226 19.9415 5.19147C19.9923 5.14068 20.0208 5.07179 20.0208 4.99996C20.0208 4.92813 19.9923 4.85924 19.9415 4.80845C19.8907 4.75766 19.8218 4.72913 19.75 4.72913Z" fill="black"/>
</svg>
