<svg width="24" height="24" viewBox="0 0 24 24" fill="none" xmlns="http://www.w3.org/2000/svg">
<g clip-path="url(#clip0)">
<path d="M11.9999 15.8475C11.9145 15.8476 11.8299 15.8308 11.751 15.7982C11.6721 15.7656 11.6003 15.7178 11.5399 15.6575L6.5399 10.6575C6.4179 10.5355 6.34937 10.37 6.34937 10.1975C6.34937 10.0249 6.4179 9.85947 6.5399 9.73747C6.6619 9.61547 6.82737 9.54694 6.9999 9.54694C7.17244 9.54694 7.3379 9.61547 7.4599 9.73747L11.9999 14.2775L16.5399 9.73747C16.6631 9.61774 16.8281 9.55076 16.9999 9.55076C17.1717 9.55076 17.3367 9.61774 17.4599 9.73747C17.5216 9.79715 17.5707 9.86863 17.6042 9.94766C17.6377 10.0267 17.6549 10.1116 17.6549 10.1975C17.6549 10.2833 17.6377 10.3683 17.6042 10.4473C17.5707 10.5263 17.5216 10.5978 17.4599 10.6575L12.4599 15.6575C12.4005 15.7192 12.329 15.768 12.2498 15.8007C12.1706 15.8334 12.0855 15.8493 11.9999 15.8475Z" fill="black"/>
</g>
<defs>
<clipPath id="clip0">
<rect width="24" height="24" fill="white"/>
</clipPath>
</defs>
</svg>
