<svg width="24" height="24" viewBox="0 0 24 24" fill="none" xmlns="http://www.w3.org/2000/svg">
<path d="M9.52584 17.6526C9.3544 17.6477 9.19072 17.5801 9.06583 17.4626C8.9461 17.3394 8.87912 17.1744 8.87912 17.0026C8.87912 16.8308 8.9461 16.6658 9.06583 16.5426L13.6158 12.0026L9.03584 7.46256C8.9161 7.33937 8.84912 7.17435 8.84912 7.00256C8.84912 6.83077 8.9161 6.66575 9.03584 6.54256C9.09551 6.48087 9.16699 6.43181 9.24602 6.39831C9.32504 6.3648 9.41 6.34753 9.49584 6.34753C9.58167 6.34753 9.66663 6.3648 9.74565 6.39831C9.82468 6.43181 9.89616 6.48087 9.95584 6.54256L14.9558 11.5426C15.0175 11.6022 15.0666 11.6737 15.1001 11.7527C15.1336 11.8318 15.1509 11.9167 15.1509 12.0026C15.1509 12.0884 15.1336 12.1734 15.1001 12.2524C15.0666 12.3314 15.0175 12.4029 14.9558 12.4626L9.95584 17.4626C9.84068 17.5765 9.68763 17.6442 9.52584 17.6526Z" fill="black"/>
</svg>
