<svg xmlns="http://www.w3.org/2000/svg" fill="none" viewBox="0 0 24 24">
  <path fill="#22A45D" fill-rule="evenodd" d="M11.296 24c6.239 0 9.414-10.2 3.766-14.4C9.413 5.4 18.79 0 12.552 0 6.311 0 0 7.235 0 13.2 0 19.165 5.057 24 11.296 24z" clip-rule="evenodd" opacity=".2"/>
  <path fill="#22A45D" fill-rule="evenodd" d="M7.333 14a6.667 6.667 0 1013.334 0 6.667 6.667 0 00-13.334 0zm6.702-4.074h-.063a.37.37 0 00-.369.342l-.32 4.168a.37.37 0 00.272.385l3.42.933a.284.284 0 00.358-.272v-.156a.37.37 0 00-.186-.322L14.74 13.63l-.337-3.37a.37.37 0 00-.369-.334z" clip-rule="evenodd"/>
</svg>